<?xml version="1.0" encoding="UTF-8" standalone="no"?>
<svg xmlns:dc="http://purl.org/dc/elements/1.1/" xmlns:cc="http://creativecommons.org/ns#" xmlns:rdf="http://www.w3.org/1999/02/22-rdf-syntax-ns#" xmlns:svg="http://www.w3.org/2000/svg" xmlns="http://www.w3.org/2000/svg" id="svg186" version="1.1" viewBox="0 0 132.29166 132.29167" height="500" width="500">

  <rect y="0" x="0" height="500" width="500" style="fill:#319cc2;" />
   <g id="text190" style="fill:#ffffff;" aria-label="inv"  transform="translate(0,-164.70832)">
   <path
      id="path194"
      style="font-style:normal;font-variant:normal;font-weight:bold;font-stretch:normal;font-size:88.19444275px;font-family:Alegreya;-inkscape-font-specification:'Alegreya Bold';stroke-width:0.26458332"
      d="m 28.454104,196.94542 q 0,3.08681 -2.028472,5.02708 -1.940278,1.94028 -4.938889,1.94028 -2.998611,0 -4.674305,-1.67569 -1.5875,-1.6757 -1.5875,-4.7625 0,-3.08681 1.940277,-5.02709 1.940278,-1.94027 4.938889,-1.94027 2.998611,0 4.674306,1.67569 1.675694,1.6757 1.675694,4.7625 z m -12.082638,47.44861 v -18.87361 q 0,-2.73403 -0.881945,-3.79236 -0.79375,-1.14653 -2.910417,-1.14653 l -2.028472,0.26459 0.529167,-5.20348 q 6.085416,-0.70555 16.933333,-2.91041 l 0.79375,1.4993 q -2.116667,4.40972 -2.116667,30.95625 0,3.88056 2.734028,3.88056 l 2.557639,-0.17639 0.176389,0.35278 -0.881945,5.55625 q -6.085416,-0.26459 -8.907638,-0.26459 -4.145139,0 -11.729861,0.97014 l 0.705555,-5.64444 q 5.027084,-0.88195 5.027084,-5.46806 z" />
   <path
      id="path196"
      style="font-style:normal;font-variant:normal;font-weight:bold;font-stretch:normal;font-size:88.19444275px;font-family:Alegreya;-inkscape-font-specification:'Alegreya Bold';stroke-width:0.26458332"
      d="m 60.906902,221.99264 q -2.998611,0 -7.584722,3.2632 -0.881944,16.13958 -0.881944,19.05 0,2.91041 0.529166,3.79236 0.617362,0.88194 2.116667,0.88194 l 2.293056,-0.17639 0.264583,0.44098 -0.970139,5.55625 q -5.820833,-0.26459 -9.348611,-0.26459 l -10.495139,0.52917 0.705556,-5.64445 q 2.557639,-0.26458 3.527778,-1.32291 1.058333,-1.05834 1.058333,-3.52778 v -18.52083 q 0,-3.08681 -0.970139,-4.14514 -0.881944,-1.14653 -3.351389,-1.14653 H 36.65343 l -0.352777,-0.44097 0.529166,-4.67431 16.404167,-2.91041 0.705555,0.88194 q -0.79375,3.08681 -0.970139,6.08542 l 0.352778,0.35278 q 8.378472,-7.32014 11.377083,-7.32014 6.261806,0 9.789583,3.0868 3.527778,2.99861 3.527778,8.37847 0,1.5875 -0.79375,10.05417 -0.79375,8.37847 -0.79375,10.67153 0,2.29305 0.617361,3.26319 0.617361,0.88195 2.116667,0.88195 l 2.645833,-0.0882 0.176389,0.35278 -0.79375,5.46806 q -6.261805,-0.26459 -9.613194,-0.26459 l -9.877778,0.70556 0.529167,-5.55625 q 3.96875,-0.97014 4.056944,-4.93889 l 0.264584,-15.08125 q 0,-7.67292 -5.644445,-7.67292 z" />
   <path
      id="path198"
      style="font-style:normal;font-variant:normal;font-weight:bold;font-stretch:normal;font-size:88.19444275px;font-family:Alegreya;-inkscape-font-specification:'Alegreya Bold';stroke-width:0.26458332"
      d="m 106.00183,244.65861 q 7.8493,-21.69583 7.8493,-23.19513 0,-1.49931 -0.61736,-1.85209 -0.61736,-0.35277 -2.29305,-0.35277 h -2.38125 l -0.35278,-0.61737 0.70555,-4.93888 q 5.55625,0.0882 9.525,0.0882 l 8.0257,-0.0882 -0.61736,5.46805 q -1.94028,0.26458 -2.82223,1.23472 -0.88194,0.88195 -2.02847,3.88056 l -11.1125,30.25069 -11.553469,1.32292 q -7.055556,-25.66458 -9.172222,-32.27917 -1.411111,-4.32152 -5.468056,-4.40972 l -0.176389,-0.44097 0.617361,-5.02708 q 5.468056,0.0882 8.202084,0.0882 4.145138,0 12.170831,-0.61736 l 0.17639,0.44097 -0.70555,5.20347 q -2.73403,0.26459 -3.52778,0.70556 -0.793753,0.44097 -0.793753,1.4993 0,2.46945 5.379863,23.63611 z" />
   </g>
</svg>
